<svg version="1.1" id="Capa_1" xmlns="http://www.w3.org/2000/svg" x="0" y="0" viewBox="0 0 512 512" xml:space="preserve"><path d="M255.998 100c-5.52 0-10 4.48-10 10s4.48 10 10 10 10-4.48 10-10-4.48-10-10-10z"/><path d="M433.134 427.796l-30.629-51.049c-10.836-18.07-16.506-48.695-16.506-69.607V190c0-60.648-41.747-111.724-98.012-126.013A39.789 39.789 0 00295.999 40c0-22.056-17.944-40-40-40s-40 17.944-40 40a39.789 39.789 0 008.012 23.987C167.745 78.276 125.998 129.352 125.998 190v117.14c0 20.912-5.67 51.537-16.503 69.603l-30.629 51.049C69.824 442.843 80.648 462 98.229 462h98.619c4.777 28.339 29.475 50 59.151 50 29.676 0 54.374-21.661 59.151-50h98.619c17.558 0 28.417-19.137 19.365-34.204zM255.998 20c11.028 0 20 8.972 20 20s-8.972 20-20 20-20-8.972-20-20 8.972-20 20-20zm-110 287.14V190c0-60.654 49.346-110 110-110s110 49.346 110 110v117.14c0 21.267 5.212 52.715 16.573 74.86H129.425c11.36-22.142 16.573-53.592 16.573-74.86zm110 184.86c-18.604 0-34.282-12.867-38.734-30.1h77.468c-4.451 17.233-20.13 30.1-38.734 30.1zm157.77-50H98.229a2.57 2.57 0 01-2.215-3.915L117.664 402h276.668l21.653 36.09a2.57 2.57 0 01-2.217 3.91z"/><path d="M299.585 111.278c-4.825-2.685-10.915-.942-13.599 3.885-2.681 4.828-.942 10.916 3.886 13.599 22.283 12.378 36.126 35.844 36.126 61.238 0 5.522 4.478 10 10 10s10-4.478 10-10c0-32.653-17.784-62.818-46.413-78.722z"/></svg>