<svg id="Capa_1" height="512" viewBox="0 0 512.005 512.005" width="512" xmlns="http://www.w3.org/2000/svg"><path d="M435.356 159.272a160.346 160.346 0 00-13.609-28.378 7.501 7.501 0 00-12.819 7.791 144.825 144.825 0 019.583 18.736l-43.64 15.884c-8.653-21.85-19.895-41.794-32.972-58.707 8.116-7.084 15.343-14.576 21.485-22.356a143.394 143.394 0 0125.142 20.281 7.5 7.5 0 0010.679-10.533c-39.567-40.118-101.067-58.865-160.717-40.232l-5.636-15.485 11.023-4.013c11.286-4.107 17.127-16.631 13.02-27.919-4.117-11.31-16.606-17.138-27.92-13.019l-16.353 5.952c-54.815 19.951-98.911 60.287-124.163 113.578-25.334 53.463-28.349 113.002-8.488 167.65 29.081 80.024 99.493 131.862 176.942 142.329v32.847H235.1c-13.323 0-24.162 10.84-24.162 24.163s10.839 24.163 24.162 24.163h18.685c4.143 0 7.5-3.357 7.5-7.5s-3.357-7.5-7.5-7.5H235.1c-5.052 0-9.162-4.11-9.162-9.163s4.11-9.163 9.162-9.163h111.947c5.053 0 9.163 4.11 9.163 9.163s-4.11 9.163-9.163 9.163h-58.263c-4.143 0-7.5 3.357-7.5 7.5s3.357 7.5 7.5 7.5h58.263c13.323 0 24.163-10.84 24.163-24.163s-10.84-24.163-24.163-24.163h-21.813v-34.514a220.9 220.9 0 0035.481-9.661l18.071-6.577c11.287-4.109 17.127-16.634 13.019-27.92-4.109-11.287-16.578-17.146-27.919-13.019L352.864 376l-5.641-15.499c77.808-32.461 117.424-120.745 88.133-201.229zm-42.998 91.786c-1.071-20.612-5.23-42.228-12.357-63.658l43.637-15.883c8.217 26.753 8.618 55.456.324 83.187-9.928-2.177-20.54-3.382-31.604-3.646zM218.814 51.561l5.583 15.34c-78.35 32.687-117.231 121.275-88.134 201.231 29.244 80.341 116.263 122.695 196.868 97.513l5.579 15.328c-87.762 27.837-185.089-17.488-217.764-107.266-16.002-43.964-13.895-91.594 5.935-134.115 18.765-40.242 51.241-71.257 91.933-88.031zm147.087 140.971c6.566 19.844 10.423 39.78 11.461 58.735-21.046 1.059-43.285 5.307-65.299 12.635l-16.64-45.718zm-217.92 63.353c-8.586-27.951-8.473-57.56.334-85.385 9.708 2.013 20.052 3.119 30.825 3.329.853 21.363 5.062 43.87 12.479 66.173zM229.67 81.387l23.842 65.506c-20.061 6.644-40.281 10.571-59.392 11.681 1.187-28.875 10.212-63.07 35.55-77.187zm-50.563 77.473c-8.865-.193-17.39-1.048-25.44-2.574a145.323 145.323 0 0136.438-50.275c-7.142 16.417-10.358 35.031-10.998 52.849zm17.643 95.238c8.315 20.997 19.024 40.23 31.452 56.708-8.288 7.298-15.629 15.026-21.827 23.058-23.221-15.371-41.992-37.385-53.243-63.89zm40.91 68.333c12.384 14.097 27.4 27.015 44.287 35.379-22.206-.602-43.513-6.35-62.531-16.264 5.258-6.623 11.379-13.024 18.244-19.115zm11.618-9.484c15.509-11.672 33.8-21.863 53.821-29.817l24.756 68.016c-29.063 5.585-58.691-15.721-78.577-38.199zm48.689-43.915c-21.574 8.537-41.34 19.577-58.144 32.295-11.388-15.187-21.248-32.939-28.974-52.361l70.477-25.652zM205.72 234.87c-6.863-20.742-10.771-41.587-11.59-61.304 20.835-1.126 42.81-5.361 64.511-12.581l17.556 48.233zm38.047-158.609a49.878 49.878 0 019.417-.893c25.622 0 50.239 18.313 67.428 37.167-15.353 11.434-33.367 21.422-53.005 29.228zm98.183 269.754L317.194 278c20.45-6.776 41.011-10.727 60.395-11.754-.781 29.846-9.731 65.334-35.639 79.769zm18.82-167.579l-70.478 25.652-17.553-48.228c21.265-8.419 40.82-19.303 57.505-31.833 12.047 15.63 22.451 34.109 30.526 54.409zm-28.472-75.333c-12.118-13.432-26.616-25.598-42.634-33.53 21.061.578 41.75 5.87 60.476 15.196-5.188 6.346-11.172 12.485-17.842 18.334zm-22.063 360.576h-38.321v-31.361c12.467.807 24.903.606 38.321-.915zm58.783-77.595c3.513-1.283 7.414.54 8.692 4.054a6.78 6.78 0 01-4.054 8.693l-18.071 6.577c-105.047 38.235-222.78-15.435-261.517-122.028C55.666 177.707 111.151 60.17 217.753 21.37l16.353-5.952c3.514-1.281 7.415.539 8.693 4.053 1.279 3.515-.539 7.415-4.054 8.693-24.182 8.803-89.53 28.038-125.459 105.088-21.521 46.153-23.808 97.857-6.436 145.586 35.946 98.762 145.326 149.774 244.096 113.823zm12.496-64.693c7.44-17.1 10.646-36.632 11.07-55.349 9.184.254 17.998 1.224 26.29 2.921a145.281 145.281 0 01-37.36 52.428z"/></svg>