<svg version="1.1" id="Capa_1" xmlns="http://www.w3.org/2000/svg" x="0" y="0" viewBox="0 0 512 512" xml:space="preserve"><path d="M494.426 228.573c-5.857-5.858-15.355-5.858-21.213 0-5.858 5.858-5.858 15.355 0 21.213 5.666 5.666 8.787 13.2 8.787 21.213 0 16.262-14.196 30-31 30h-.669c-.014-.161-.025-.321-.04-.482-3.711-40.611-23.168-78.247-54.787-105.977-26.511-23.25-59.575-37.917-94.538-42.213.01-.443.034-.883.034-1.328 0-33.084-26.916-60-60-60s-60 26.916-60 60c0 .229.015.455.017.684a164.471 164.471 0 00-26.92 4.687C134.104 133.766 106.182 121 76 121c-9.267 0-16.318 8.332-14.796 17.466l11.376 68.245c-16.729 18.662-28.855 40.84-35.566 64.998C15.997 275.489 0 293.911 0 316v30c0 25.636 21.291 44.948 44.121 45.004l4.881.006A165.858 165.858 0 0091 443.284V497c0 8.284 6.716 15 15 15h60c8.284 0 15-6.716 15-15v-16h90v16c0 8.284 6.716 15 15 15h60c8.284 0 15-6.716 15-15v-33.99c50.82-25.926 84.143-75.977 89.286-132.01H451c16.003 0 31.19-6.185 42.765-17.414C505.524 302.177 512 287.053 512 271c0-16.027-6.241-31.094-17.574-42.427zM241 121c16.542 0 30 13.458 30 30s-13.458 30-30 30-30-13.458-30-30 13.458-30 30-30zm98.994 318.773A15 15 0 00331 453.518V482h-30v-46c0-8.284-6.716-15-15-15s-15 6.716-15 15v15h-90v-18c0-8.284-6.716-15-15-15s-15 6.716-15 15v49h-30v-45.989c0-4.718-2.22-9.16-5.991-11.994-18.669-14.022-33.46-32.697-42.774-54.004a14.999 14.999 0 00-13.729-8.992c-7.241-.007-11.113-.011-13.069-.015A15.92 15.92 0 0045 361c-8.271 0-15-6.729-15-15v-30c0-8.271 6.729-15 14.998-15H49a15 15 0 0014.7-12.016c5.152-25.379 17.455-48.507 35.577-66.884a15.003 15.003 0 004.115-12.999l-9.313-55.874c16.812 4.234 31.744 14.361 42.482 29.18a15.002 15.002 0 0016.872 5.435c11.538-3.83 23.536-6.047 35.748-6.654C199.598 199.001 218.918 211 241 211c21.919 0 41.121-11.821 51.592-29.416 67.714 5.945 121.895 56.791 127.824 121.664 5.328 58.315-26.99 113.18-80.422 136.525z"/><circle cx="106" cy="286" r="15"/><path d="M286 241h-90c-8.284 0-15 6.716-15 15s6.716 15 15 15h90c8.284 0 15-6.716 15-15s-6.716-15-15-15zM361 0c-33.084 0-60 26.916-60 60s26.916 60 60 60 60-26.916 60-60-26.916-60-60-60zm0 90c-16.542 0-30-13.458-30-30s13.458-30 30-30 30 13.458 30 30-13.458 30-30 30z"/></svg>