<svg id="katman_1" version="1.1" viewBox="0 0 512 512" xml:space="preserve" xmlns="http://www.w3.org/2000/svg"><circle cx="256" cy="256" r="250" fill="#35495e"/><path d="M460.9 399.2l-1.3-1.3-120.1-120.1c-55.1-55.1-110.2-110.1-165.2-165.3-7.6-7.6-19.5-8.2-27.4-.1-4.9 5-9.8 9.8-14.7 14.8-4.7 4.8-6.6 10.5-5.3 17.1.2 1 .1 1.7-.7 2.4l-1.2 1.2c-10.6 10-15.9 22.6-17.6 36.9-1.3 10.8-.5 21.5 1.6 32.2 3.2 16 8.9 31.1 16.3 45.7 13.5 26.6 31.2 50 52.2 71 52.5 52.7 105.2 105.2 157.8 157.8l1 1c.1.2.3.3.4.4 50.7-17.5 94.1-50.6 124.2-93.7z" fill="#2c3e50"/><path d="M400.6 339.3l-60-60c-7.2-7.2-18.8-7.2-26 0L299 294.9c-4.9 4.9-6.4 11.9-4.6 18.1l-5.9 5.9c-4.2 4.2-30.2-2.2-61.7-33.7-31.5-31.5-37.9-57.5-33.7-61.7l5.9-5.9c1.7.5 3.4.7 5.1.7 4.7 0 9.4-1.8 13-5.4l15.6-15.6c7.2-7.2 7.2-18.8 0-26l-60-60c-3.5-3.5-8.1-5.4-13-5.4s-9.5 1.9-13 5.4L131.1 127c-4.9 4.9-6.4 11.9-4.6 18.1 0 0-5 5-5.2 5.4-16.6 18.5-19.7 47.5-8.7 82.2 10.8 34 34 70 65.4 101.4 31.4 31.4 67.4 54.6 101.4 65.4 13.7 4.3 26.4 6.5 38 6.5 19 0 34.9-5.8 46.3-17.1l3.3-3.3c1.6.5 3.4.7 5.1.7 4.9 0 9.5-1.9 13-5.4l15.6-15.6c7.1-7.1 7.1-18.8-.1-26zM159.7 118l66.4 66.4-22 22-66.4-66.4 22-22zm194.1 261.1c-8.7 8.7-21.2 13.1-36.5 13.1-10.1 0-21.5-1.9-33.8-5.8-31.9-10.1-66-32.1-95.8-62-29.9-29.9-51.9-63.9-62-95.8-9.8-30.9-7.2-55.9 7.3-70.3l4.8-4.8 52.9 52.9-7.6 7.6c-15.3 15.5 6 53.4 33.8 81.2 23.6 23.6 50.1 38.8 67.4 38.8 5.8 0 10.4-1.7 13.8-5l7.5-7.5 52.9 52.9-4.7 4.7zm23.9-10.4c-3.2 3.2-3.8 3.8-5.3 3.8h-.5l-1.7-.1-64.4-64.4 22-22 66.4 66.4-16.5 16.3z" fill="#fff"/></svg>