<svg id="katman_1" version="1.1" viewBox="0 0 512 512" xml:space="preserve" xmlns="http://www.w3.org/2000/svg"><circle cx="256" cy="256" r="250" fill="#f1c410"/><path d="M505.4 273l-.3-.3c-34.2-34.1-68.4-68.3-102.5-102.5-3.3-3.3-7.2-4.9-11.8-4.9-6.6.1-13.3 0-19.9 0H256.7v.2h-16.8c-22.2 0-44.5.1-66.7.1-16.6 0-33.3 0-49.9.1h-1.9c-3.8.2-7 1.6-9.7 4.1-3.4 3.2-4.9 7.2-4.9 11.8.1 19.8.1 39.7.1 59.5 0 29.8.1 59.5 0 89.3 0 5.6 1.8 10.1 5.8 14.1 40.9 40.8 81.8 81.8 122.7 122.6 12.4 12.4 24.9 24.9 37.3 37.4.3.3.6.6.9.8 124.2-8.6 223.4-108 231.8-232.3z" fill="#f49c13"/><path d="M405.8 180.2c0-8.5-6.9-15.3-15.4-15.3l-269.1.4c-4.1 0-8 1.6-10.9 4.5-2.9 2.9-4.5 6.8-4.5 10.9l.2 151.2c0 4.1 1.6 8 4.5 10.9 2.9 2.9 6.8 4.5 10.9 4.5l269.1-.4c8.5 0 15.4-6.9 15.3-15.4l-.1-151.3zm-100.1 97.2l69.7 54.1-239 .3 70.1-54.4c3.4-2.6 4-7.4 1.4-10.8-2.6-3.4-7.4-4-10.8-1.4l-75.5 58.6-.2-136.2 130.3 90c1.3.9 2.8 1.4 4.4 1.4 1.5 0 3.1-.5 4.4-1.4l130-90.4.2 136.6-75.5-58.6c-3.4-2.6-8.2-2-10.8 1.4-2.7 3.3-2 8.2 1.3 10.8zm-167.5-96.8l235.3-.3L256 261.9l-117.8-81.3z" fill="#fff"/></svg>