<svg xmlns="http://www.w3.org/2000/svg" viewBox="0 0 64 64" width="512" height="512"><g id="Mechanic"><path d="M19 19h2v2h-2zm10 0h2v2h-2zm0 6h-2a2 2 0 01-4 0h-2a4 4 0 008 0z"/><path d="M57.3 12a1 1 0 00-1.671.45l-1.372 5.121-3.287.672-2.509-2.225L49.83 10.9a1 1 0 00-1.222-1.225 8.987 8.987 0 00-4.436 14.613L40.07 39.6a11.216 11.216 0 00-1.791-.746L30 36.265v-3.471A10.992 10.992 0 0036 23v-1a2.99 2.99 0 001.406-5.634 2.521 2.521 0 00.158-.259l.1-.206A2.982 2.982 0 0036 11.749V6.64a3.014 3.014 0 00-2.413-2.94l-6.828-1.373a9.34 9.34 0 00-3.527 0L16.412 3.7A3.014 3.014 0 0014 6.64v5.109a2.982 2.982 0 00-1.667 4.151l.1.2a2.838 2.838 0 00.155.263A2.99 2.99 0 0014 22v1a11 11 0 006 9.786v3.479l-8.277 2.589A10.943 10.943 0 004 49.35V61a1 1 0 001 1h40a1 1 0 001-1v-2h-2v1h-5v-3h-2v3H13V49h-2v11H6V49.35a8.95 8.95 0 016.318-8.586L15 39.925V46a5.006 5.006 0 005 5h10a4.968 4.968 0 003.662-1.622 8.975 8.975 0 002.638 6.251 1 1 0 001.671-.45l1.372-5.121 3.286-.673 2.51 2.225-1.372 5.121a1 1 0 00.966 1.259 1.02 1.02 0 00.255-.033 8.985 8.985 0 004.436-14.613l4.412-16.467A8.986 8.986 0 0057.3 12zM38.729 41.181A9.047 9.047 0 0035 44.573v-4.648l2.681.839a8.965 8.965 0 011.048.417zm-8.67-2.8l-.772 4.027-2.674-1.6 2.666-2.666zM15.3 15.748a1 1 0 01-1.074-.539l-.1-.2a1 1 0 01.743-1.436l8.768-1.348a8.964 8.964 0 012.736 0l8.768 1.348a1 1 0 01.744 1.434l-.1.206a1 1 0 01-1.073.537l-8.094-1.473a8.969 8.969 0 00-3.218 0zM36 20v-2a1 1 0 010 2zM34 6.64v4.733l-2.575-.4 1.09-5.453.676.136A1.007 1.007 0 0134 6.64zM23.618 4.292a7.274 7.274 0 012.755 0l4.182.84-1.109 5.543-2.773-.427a10.913 10.913 0 00-3.346 0l-2.773.427-1.109-5.545zm-6.81 1.368l.677-.136 1.09 5.453-2.575.4V6.64a1.007 1.007 0 01.808-.98zM13 19a1 1 0 011-1v2a1 1 0 01-1-1zm3 4v-5.348l7.748-1.408a6.977 6.977 0 012.5 0L34 17.652V23a9 9 0 01-18 0zm9 11a11.04 11.04 0 003-.421v3.007l-3 3-3-3v-3.012A10.966 10.966 0 0025 34zm-4.279 4.135l2.666 2.665-2.674 1.6-.772-4.027zM30 49H20a3 3 0 01-3-3v-6.7l1.019-.319 1 5.208a1 1 0 001.5.669L25 42.166l4.485 2.691a1 1 0 001.5-.669l1-5.208L33 39.3V46a3 3 0 01-3 3zm27.7-28.827a7.019 7.019 0 01-4.949 4.944 1 1 0 00-.706.707l-4.7 17.537a1 1 0 00.258.965 6.99 6.99 0 01-1.384 10.967l1.008-3.762a1 1 0 00-.3-1.007l-3.347-2.967a1 1 0 00-.663-.252 1.062 1.062 0 00-.2.02l-4.381.9a1 1 0 00-.765.72l-1.007 3.762a6.989 6.989 0 014.284-10.189 1 1 0 00.706-.707l4.7-17.538a1 1 0 00-.258-.965 6.991 6.991 0 011.385-10.967L46.366 16.1a1 1 0 00.3 1.006l3.346 2.967a1 1 0 00.863.232l4.382-.9a1 1 0 00.765-.721l1.008-3.761a6.992 6.992 0 01.67 5.25z"/></g></svg>