<svg version="1.1" id="Capa_1" xmlns="http://www.w3.org/2000/svg" x="0" y="0" viewBox="0 0 512 512" xml:space="preserve"><path d="M438.973 411.718c-14.598 0-26.475 11.876-26.475 26.475 0 14.598 11.876 26.474 26.475 26.474 14.598 0 26.474-11.876 26.474-26.474s-11.876-26.475-26.474-26.475zm-.001 37.259c-5.946 0-10.784-4.838-10.784-10.784 0-5.946 4.838-10.784 10.784-10.784 5.946 0 10.784 4.838 10.784 10.784s-4.838 10.784-10.784 10.784z"/><path d="M510.303 436.82c-.5-19.383-8.704-37.211-23.102-50.198L329.249 244.157l139.658-139.658a14.816 14.816 0 002.7-1.077L501.85 87.46c4.178-2.206 6.98-6.152 7.685-10.823.706-4.672-.805-9.268-4.146-12.612l-34.052-34.051c-3.342-3.341-7.935-4.852-12.611-4.146-4.671.705-8.616 3.507-10.823 7.686L431.94 63.755a14.882 14.882 0 00-1.099 2.723l-65.92 65.92a7.846 7.846 0 0011.096 11.096l60.492-60.493 15.853 15.853-154.7 154.7-15.853-15.853 67.525-67.524a7.846 7.846 0 00-11.096-11.096l-48.994 48.994-53.322-48.094a120.384 120.384 0 00-28.625-124.725C173.706 1.665 123.314-9.04 78.916 7.987a7.844 7.844 0 00-2.738 12.873l61.592 61.593a9.586 9.586 0 012.827 6.822c0 2.577-1.004 5-2.827 6.823l-39.999 39.999a9.582 9.582 0 01-6.822 2.827c-2.577 0-5-1.003-6.823-2.827L22.533 74.504A7.847 7.847 0 009.66 77.242c-17.027 44.396-6.322 94.788 27.27 128.381 31.991 31.99 79.468 43.253 122.299 29.414l41.227 45.083a42.275 42.275 0 01-7.734 10.658c-11.884 11.884-29.695 15.628-45.38 9.54a7.842 7.842 0 00-8.388 1.765l-96.059 96.059c-26.004 26.005-26.004 68.317 0 94.32C55.494 505.063 72.243 512 90.058 512c17.814 0 34.564-6.937 47.161-19.534l96.059-96.058a7.847 7.847 0 001.765-8.388c-6.089-15.684-2.345-33.497 9.538-45.381 11.886-11.884 29.698-15.628 45.382-9.54a7.844 7.844 0 008.388-1.765l18.12-18.12c5.456-5.456 8.46-12.711 8.46-20.426 0-7.715-3.004-14.97-8.46-20.426l-7.713-7.713 9.383-9.383 158.552 143.007c11.172 10.077 17.539 23.911 17.926 38.951.387 15.04-5.259 29.183-15.898 39.821-10.588 10.59-24.695 16.226-39.636 15.903-14.971-.334-28.781-6.604-38.886-17.655L282.31 346.378a7.846 7.846 0 00-11.579 10.589l117.888 128.915c13.024 14.241 30.822 22.321 50.115 22.752.54.012 1.079.018 1.618.018 18.688 0 36.199-7.249 49.464-20.512 13.71-13.711 20.985-31.937 20.487-51.32zM446.149 70.45l15.019-28.454 32.199 32.199-28.454 15.019-18.764-18.764zM167.324 220.639a7.847 7.847 0 00-8.532-2.056c-38.363 14.31-81.845 4.868-110.768-24.052-26.262-26.263-36.438-64.337-27.471-99.815l52.477 52.477c4.787 4.786 11.15 7.421 17.918 7.421s13.131-2.635 17.917-7.421l39.999-39.999c4.786-4.787 7.421-11.15 7.421-17.918s-2.635-13.131-7.421-17.917L96.388 18.88c35.475-8.971 73.553 1.208 99.814 27.471 29.659 29.657 38.773 74.003 23.222 112.978a7.843 7.843 0 002.032 8.733l56.679 51.122-7.422 7.422-7.713-7.713c-5.456-5.456-12.711-8.46-20.426-8.46-7.715 0-14.97 3.004-20.426 8.46l-18.12 18.12a7.847 7.847 0 00-1.765 8.388c2.087 5.375 2.992 10.997 2.837 16.548l-37.776-41.31zm138.05 81.48l-14.682 14.683c-20.192-5.821-42.164-.299-57.205 14.741h-.001c-15.04 15.041-20.563 37.01-14.74 57.206l-92.622 92.62c-9.634 9.634-22.442 14.94-36.065 14.94s-26.433-5.306-36.065-14.94c-19.887-19.886-19.887-52.244 0-72.131l92.621-92.621c20.194 5.824 42.163.298 57.205-14.742 15.04-15.041 20.564-37.01 14.741-57.205l14.683-14.682c5.144-5.146 13.517-5.146 18.661 0l13.261 13.261 26.947 26.947 13.261 13.261c5.146 5.146 5.146 13.518 0 18.662z"/><path d="M162.326 346.249a7.848 7.848 0 00-11.096 0l-74.318 74.318a7.846 7.846 0 0011.096 11.096l74.318-74.318a7.848 7.848 0 000-11.096zm27.459 27.459a7.848 7.848 0 00-11.096 0l-74.318 74.317a7.846 7.846 0 0011.096 11.096l74.318-74.317a7.846 7.846 0 000-11.096z"/></svg>